<svg xmlns="http://www.w3.org/2000/svg" viewBox="0 0 100 100" fill="#c24a1f" role="img" aria-label="Lea Faka-Tonga">
  <polygon points="0,0 50,0 0,50"/>
  <polygon points="100,0 50,0 100,50"/>
  <polygon points="100,100 50,100 100,50"/>
  <polygon points="0,100 50,100 0,50"/>
  <polygon points="25,25 50,25 25,50"/>
  <polygon points="75,25 50,25 75,50"/>
  <polygon points="75,75 50,75 75,50"/>
  <polygon points="25,75 50,75 25,50"/>
  <polygon points="37.5,37.5 50,37.5 37.5,50"/>
  <polygon points="62.5,37.5 50,37.5 62.5,50"/>
  <polygon points="62.5,62.5 50,62.5 62.5,50"/>
  <polygon points="37.5,62.5 50,62.5 37.5,50"/>
</svg>
